<svg width="12" height="12" viewBox="0 0 12 12" fill="none" xmlns="http://www.w3.org/2000/svg">
<path d="M10.9126 5.10211L11.5072 5.69668C11.759 5.94844 11.759 6.35554 11.5072 6.60462L6.30331 11.8112C6.05156 12.0629 5.64446 12.0629 5.39538 11.8112L0.188818 6.60462C-0.0629394 6.35286 -0.0629394 5.94576 0.188818 5.69668L0.783395 5.10211C1.03783 4.84767 1.45296 4.85303 1.70204 5.11282L4.7767 8.34014V0.642785C4.7767 0.286575 5.06327 0 5.41948 0L6.27653 0C6.63274 0 6.91932 0.286575 6.91932 0.642785V8.34014L9.99397 5.11282C10.2431 4.85035 10.6582 4.84499 10.9126 5.10211H10.9126Z" fill="#C23927"/>
</svg>
