<svg width="12" height="12" viewBox="0 0 12 12" fill="none" xmlns="http://www.w3.org/2000/svg">
<path d="M0.782691 6.89789L0.188114 6.30332C-0.0636435 6.05156 -0.0636435 5.64446 0.188114 5.39538L5.392 0.188818C5.64376 -0.0629396 6.05085 -0.0629396 6.29993 0.188818L11.5065 5.39538C11.7583 5.64714 11.7583 6.05424 11.5065 6.30332L10.9119 6.89789C10.6575 7.15233 10.2424 7.14697 9.99327 6.88718L6.91861 3.65986L6.91861 11.3572C6.91861 11.7134 6.63204 12 6.27583 12H5.41878C5.06257 12 4.776 11.7134 4.776 11.3572L4.776 3.65986L1.70134 6.88718C1.45226 7.14965 1.03713 7.15501 0.782694 6.89789H0.782691Z" fill="#51BC47"/>
</svg>
